<svg width="100" height="100" xmlns="http://www.w3.org/2000/svg">

 <g>
  <title>background</title>
  <rect fill="none" id="canvas_background" height="602" width="802" y="-1" x="-1"/>
 </g>
 <g>
  <title>Layer 1</title>
  <polygon id="svg_2" points="8.009279801101684,74.17235900844571 8.009279801101684,25.737640180931066 49.95499861240387,49.95499861240387 " fill="#FFFFFF"/>
  <polygon id="svg_3" points="49.95499861240387,49.95499861240387 49.95499861240387,98.38868997031204 8.009279801101684,74.17235900844571 " fill="#FFFFFF"/>
  <polygon id="svg_4" points="49.95396917822836,1.521309955778122 49.95396917822836,49.95499861240387 8.009279801101684,25.737640180931066 " fill="#FFFFFF"/>
  <polygon stroke="null" id="svg_5" points="49.9539680480957,51.530757904052734 49.9539680480957,1.5213098526000977 92.62799571889627,26.525503158569336 " fill="#FFFFFF"/>
  <polygon stroke="null" id="svg_6" points="49.9539680480957,98.38868713378906 49.9539680480957,48.379241943359375 92.62799571889627,73.38449096679688 " fill="#FFFFFF"/>
  <polygon id="svg_8" points="9.2760009765625,73.51200199127197 9.2760009765625,26.487998008728027 50,49.99999713897705 " fill="#5C5C5C"/>
  <polygon id="svg_9" points="50,49.99999713897705 50,97.02300357818604 9.2760009765625,73.51200199127197 " fill="#383838"/>
  <polygon id="svg_10" points="49.999000549316406,2.9769973754882812 49.999000549316406,49.99999713897705 9.2760009765625,26.487998008728027 " fill="#868686"/>
  <polygon id="svg_11" points="49.999000549316406,49.99999713897705 49.999000549316406,2.9769973754882812 90.7239990234375,26.487998008728027 " fill="#C1C1C1"/>
  <polygon stroke="null" id="svg_12" points="49.999000549316406,97.02300357818604 49.999000549316406,49.99999713897705 90.7239990234375,73.51200199127197 " fill="#111111"/>
  <g id="svg_13"/>
  <g id="svg_14"/>
  <g id="svg_15"/>
  <g id="svg_16"/>
  <g id="svg_17"/>
 </g>
</svg>